<svg t="1773506444136" class="icon" viewBox="0 0 1024 1024" version="1.1" xmlns="http://www.w3.org/2000/svg" p-id="3161" width="200" height="200"><path d="M512 188c17.673 0 32 14.327 32 32 0 17.673-14.327 32-32 32H304c-48.601 0-88 39.399-88 88v320.108c0 48.601 39.399 88 88 88h28.935c21.144 0 42.056 4.411 61.399 12.953l82.119 36.261a87.997 87.997 0 0 0 71.094 0l82.119-36.261a151.988 151.988 0 0 1 61.399-12.953H720c48.601 0 88-39.399 88-88V500.054c0-17.673 14.327-32 32-32 17.673 0 32 14.327 32 32v160.054c0 83.948-68.053 152-152 152h-28.935a88.011 88.011 0 0 0-35.546 7.499l-82.12 36.261a151.994 151.994 0 0 1-122.798 0l-82.12-36.261a88.011 88.011 0 0 0-35.546-7.499H304c-83.947 0-152-68.052-152-152V340c0-83.947 68.053-152 152-152h208z m216-32c17.673 0 32 14.327 32 32v96h96c17.673 0 32 14.327 32 32 0 17.673-14.327 32-32 32h-96v96c0 17.673-14.327 32-32 32-17.673 0-32-14.327-32-32v-96h-96c-17.673 0-32-14.327-32-32 0-17.673 14.327-32 32-32h96v-96c0-17.673 14.327-32 32-32z" fill="#000000" p-id="3162"></path></svg>
